<svg version="1.1" id="Layer_1" xmlns="http://www.w3.org/2000/svg" xmlns:xlink="http://www.w3.org/1999/xlink" x="0px" y="0px"
	 width="100%" viewBox="0 0 656 208" enable-background="new 0 0 656 208" xml:space="preserve">
<path fill="#000000" opacity="1.000000" stroke="none" 
	d="
M1.000000,149.000000 
	C1.000000,148.555557 1.000000,148.111099 1.468657,147.332932 
	C70.244514,146.999176 138.551712,146.999237 206.858917,146.998535 
	C208.191711,146.998520 209.673782,147.357315 210.819473,146.891968 
	C212.247864,146.311798 213.398972,145.048889 214.669800,144.080780 
	C214.409363,143.720520 214.148941,143.360260 213.888519,143.000000 
	C142.925674,143.000000 71.962837,143.000000 1.000000,143.000000 
	C1.000000,142.555557 1.000000,142.111099 1.468657,141.333054 
	C71.572983,140.999435 141.208649,140.999481 210.844315,140.998810 
	C212.177032,140.998795 213.630219,141.325653 214.812302,140.901306 
	C216.329559,140.356674 217.628922,139.205093 219.022156,138.315002 
	C218.795990,137.876663 218.569809,137.438339 218.343643,137.000000 
	C145.895767,137.000000 73.447884,137.000000 1.000000,137.000000 
	C1.000000,136.555557 1.000000,136.111099 1.243946,134.867798 
	C3.479470,133.991974 5.471037,133.848038 7.462626,133.847748 
	C77.369995,133.837723 147.277374,133.850082 217.184708,133.794800 
	C219.058243,133.793304 221.638992,133.715088 222.664688,132.572601 
	C225.201965,129.746475 227.027206,126.281128 229.108826,123.041702 
	C229.079041,123.010742 229.044250,123.089211 229.308197,123.018036 
	C229.746262,122.640282 229.920364,122.333694 230.057648,122.020821 
	C230.020828,122.014534 230.045898,122.084930 230.335205,121.993790 
	C230.712067,121.531204 230.799622,121.159760 231.083435,120.524063 
	C236.265274,116.012192 239.477615,110.687691 241.281036,104.119217 
	C251.827576,85.458015 262.056213,66.992111 272.582520,47.988873 
	C270.673096,47.988873 269.681244,47.988873 268.689392,47.988873 
	C203.247925,47.988861 137.806473,47.987484 72.365005,47.998543 
	C71.038910,47.998768 69.712837,48.143875 67.896980,48.150116 
	C55.284271,48.054001 43.160824,47.973801 31.039110,48.083900 
	C29.724670,48.095844 28.420227,49.208462 27.111149,49.810532 
	C28.459768,50.539383 29.798048,51.878216 31.158630,51.901279 
	C42.780216,52.098263 54.405842,52.056602 66.010635,52.405083 
	C65.936729,53.143665 65.882446,53.563515 65.370560,53.989189 
	C53.626869,53.997570 42.340046,53.941471 31.055656,54.081352 
	C29.733843,54.097740 28.425415,55.194263 27.110783,55.790047 
	C28.451420,56.525826 29.781038,57.876030 31.134436,57.900299 
	C42.084953,58.096672 53.039936,58.044083 63.990952,58.360985 
	C63.790291,59.169838 63.592239,59.685146 62.902412,60.136356 
	C51.967957,60.049335 41.524570,59.963787 31.083471,60.081409 
	C29.753286,60.096386 28.435053,61.172340 27.111282,61.756775 
	C28.438421,62.503571 29.753660,63.872601 31.094589,63.898247 
	C41.368279,64.094719 51.646969,64.029846 61.899712,64.335251 
	C61.530857,65.075447 61.186390,65.526573 60.383438,65.985703 
	C50.297836,65.996742 40.669647,65.931305 31.044861,66.082642 
	C29.725000,66.103401 28.422096,67.202507 27.111341,67.802353 
	C28.456341,68.534004 29.787363,69.868523 31.148598,69.900085 
	C40.438591,70.115501 49.734936,70.057037 59.010082,70.405426 
	C58.936893,71.143509 58.882854,71.563072 58.371185,71.989075 
	C48.961025,71.998230 40.007229,71.928230 31.057322,72.082970 
	C29.732716,72.105881 28.426466,73.190643 27.111725,73.784134 
	C28.448772,74.521523 29.770716,75.864029 31.125330,75.897850 
	C39.741016,76.112930 48.363918,76.039261 56.986008,76.358032 
	C56.773891,77.166206 56.560211,77.677086 55.858231,78.126373 
	C46.892769,78.043571 38.412811,77.903084 29.940817,78.101967 
	C28.249914,78.141678 26.589439,79.477478 24.914934,80.215637 
	C25.122845,80.821159 25.330753,81.426674 25.538662,82.032188 
	C35.320011,82.032188 45.101364,82.032188 54.882366,82.321136 
	C54.545193,83.062149 54.208366,83.514221 53.411209,83.978867 
	C44.161674,83.995476 35.371899,84.057655 26.583614,83.969986 
	C23.753546,83.941757 22.214102,84.661095 23.234041,88.087318 
	C32.812618,88.087318 42.421204,88.087318 52.010227,88.410507 
	C51.917862,89.154686 51.845066,89.575684 51.318607,89.987747 
	C42.080681,89.986977 33.296413,90.001244 24.512144,89.999283 
	C22.117796,89.998749 19.835129,90.071526 20.476492,94.034348 
	C30.383944,94.034348 40.134071,94.034348 49.886108,94.318451 
	C49.568623,95.050209 49.249218,95.497864 48.466160,95.966400 
	C39.206364,95.992493 30.408312,95.903290 21.615669,96.081291 
	C19.821878,96.117599 18.048418,97.157974 16.265585,97.735504 
	C16.371069,98.518784 16.476553,99.302071 16.582035,100.085350 
	C26.731857,100.085350 36.881676,100.085350 47.011375,100.401428 
	C46.946575,101.135796 46.901901,101.554085 46.397766,101.982292 
	C36.552204,101.995422 27.162355,101.865372 17.783558,102.128799 
	C16.159348,102.174423 14.581929,103.885986 12.660139,104.971962 
	C10.071815,108.104538 7.806252,111.093208 5.179723,114.031708 
	C4.211997,115.599823 3.605236,117.218102 2.627985,118.995438 
	C1.838330,119.103004 1.419165,119.051506 1.000000,119.000000 
	C1.000000,79.765793 1.000000,40.531590 1.000000,1.000000 
	C19.353157,1.000000 37.707920,1.000000 56.559788,1.358941 
	C55.916035,2.618233 54.775177,3.518584 53.207516,4.755760 
	C63.939804,4.755760 73.961006,4.755760 84.100334,4.755760 
	C82.608765,3.389538 81.304382,2.194768 80.000000,0.999999 
	C130.354233,1.000000 180.708450,1.000000 231.568024,1.349960 
	C231.250565,2.580532 230.427780,3.461144 229.274445,4.695537 
	C236.317459,4.695537 242.754364,4.695537 249.386337,4.695537 
	C248.459259,3.259843 247.729630,2.129922 247.000000,1.000001 
	C383.621368,1.000000 520.242737,1.000000 656.932068,1.000000 
	C656.932068,70.265007 656.932068,139.530106 656.932068,208.897598 
	C438.333374,208.897598 219.666687,208.897598 1.000000,208.897598 
	C1.000000,193.927353 1.000000,178.932343 1.466583,163.416168 
	C20.120394,163.596161 38.306793,164.320145 56.495544,164.979309 
	C60.154690,165.111908 63.822758,164.998459 67.486710,164.998459 
	C99.463013,164.998459 131.439316,164.999557 163.415619,164.996429 
	C166.048660,164.996170 169.012665,165.509384 169.255661,161.000000 
	C113.128227,161.000000 57.064114,161.000000 1.000000,161.000000 
	C1.000000,160.555557 1.000000,160.111099 1.466573,159.280701 
	C58.519783,158.928802 115.106506,159.003860 171.692780,158.877258 
	C174.555389,158.870865 177.414093,157.124588 180.274597,156.188416 
	C180.176025,155.792282 180.077438,155.396133 179.978867,155.000000 
	C120.319244,155.000000 60.659622,155.000000 1.000000,155.000000 
	C1.000000,154.555557 1.000000,154.111099 1.468657,153.333038 
	C62.262733,152.999298 122.588158,152.999222 182.913574,152.999054 
	C190.312820,152.999023 197.718414,153.164658 205.106873,152.882309 
	C206.969391,152.811096 208.777130,151.306091 210.610031,150.459976 
	C210.388519,149.973312 210.167007,149.486664 209.945496,149.000000 
	C140.296997,149.000000 70.648499,149.000000 1.000000,149.000000 
M342.904541,68.371956 
	C336.293304,82.160774 329.605927,95.914055 323.141205,109.771225 
	C321.981201,112.257645 320.670288,113.174469 317.953033,113.068443 
	C312.465332,112.854301 306.962952,112.968811 301.467743,113.036530 
	C300.385834,113.049858 298.673401,113.116989 298.330048,113.746994 
	C295.566284,118.818123 293.060913,124.030060 290.078278,129.995590 
	C305.502808,129.995590 319.479431,130.111343 333.448090,129.829742 
	C334.968567,129.799088 337.039948,127.775238 337.846130,126.169083 
	C345.967957,109.987938 354.222992,93.856194 361.665924,77.361023 
	C364.337433,71.440323 367.462585,69.609947 373.823395,69.824242 
	C389.591919,70.355476 389.605743,69.999504 395.659851,55.524483 
	C395.771912,55.256599 395.673920,54.900879 395.673920,54.002140 
	C385.549591,54.002140 375.365784,54.883530 365.404846,53.770500 
	C353.941437,52.489586 346.343903,55.555717 343.355804,67.218430 
	C343.316467,67.371887 343.183777,67.501411 342.904541,68.371956 
M302.591522,54.002140 
	C295.920410,52.509975 292.653198,55.773689 289.949036,61.647491 
	C282.660004,77.480370 274.611359,92.962196 267.194305,108.738541 
	C265.557495,112.220047 263.604156,113.274544 260.007965,113.074478 
	C255.030258,112.797554 250.021637,112.897614 245.035110,113.079453 
	C243.730545,113.127014 241.739685,113.730545 241.292664,114.665909 
	C238.988235,119.487915 237.083527,124.500946 234.810867,130.000153 
	C248.542236,130.000153 261.661346,129.862656 274.774292,130.086258 
	C278.571167,130.151016 280.606506,129.133347 282.328033,125.508629 
	C290.584198,108.125069 299.307922,90.963928 307.617004,73.604805 
	C309.001831,70.711586 310.580475,69.815102 313.595398,69.938065 
	C318.912537,70.154915 324.248077,70.096283 329.568573,69.924995 
	C330.807892,69.885094 332.642578,69.263824 333.135345,68.340256 
	C335.542572,63.828396 337.588135,59.123589 339.988922,54.002140 
	C327.194305,54.002140 315.381683,54.002140 302.591522,54.002140 
M151.500000,30.999699 
	C117.842392,30.999699 84.184792,30.999565 50.527184,30.999830 
	C44.862045,30.999876 39.193653,30.901546 33.534458,31.085424 
	C32.375244,31.123091 31.250484,32.220963 30.109844,32.830135 
	C31.304857,33.552269 32.456799,34.366718 33.714855,34.953732 
	C34.262398,35.209217 35.027851,34.998177 35.694336,34.998180 
	C112.673592,34.998257 189.652847,34.998264 266.632111,34.998272 
	C268.259003,34.998272 269.885864,34.998272 271.587830,34.998272 
	C271.584839,30.268681 268.498413,31.010689 265.969421,31.009724 
	C228.146286,30.995266 190.323135,30.999710 151.500000,30.999699 
M144.500000,28.998287 
	C184.128815,28.998287 223.757629,28.998447 263.386444,28.997593 
	C264.718445,28.997564 266.137512,29.268967 267.354858,28.892651 
	C268.327301,28.592043 269.054169,27.497078 269.890045,26.754694 
	C269.058197,26.175327 268.297180,25.375977 267.374451,25.079000 
	C266.467590,24.787136 265.396576,25.000423 264.397583,25.000414 
	C188.803101,24.999643 113.208626,24.999552 37.614147,25.001154 
	C36.448772,25.001179 35.182156,24.745527 34.150009,25.122204 
	C33.322338,25.424259 32.779163,26.505850 32.109734,27.241501 
	C32.774826,27.815268 33.366169,28.720417 34.121540,28.888517 
	C35.393078,29.171486 36.768764,28.996714 38.100643,28.996784 
	C73.233765,28.998671 108.366882,28.998281 144.500000,28.998287 
M39.901421,19.000340 
	C37.935982,19.712290 35.970543,20.424238 34.005104,21.136189 
	C34.179924,21.645658 34.354744,22.155127 34.529564,22.664597 
	C112.200104,22.664597 189.870636,22.664597 267.541168,22.664597 
	C267.717438,22.116858 267.893707,21.569118 268.069977,21.021379 
	C266.316040,20.347744 264.564453,19.094030 262.807800,19.086882 
	C233.150177,18.966152 203.491928,18.998829 173.833801,19.008028 
	C172.838806,19.008337 171.812653,18.981155 170.853714,19.198862 
	C161.810486,21.251904 152.750702,22.727158 143.444595,21.014345 
	C139.083893,20.211750 134.679474,19.113804 130.289536,19.088835 
	C100.465767,18.919218 70.640572,19.000153 39.901421,19.000340 
M204.500000,45.999416 
	C212.159424,45.999416 219.818832,45.999416 227.478256,45.999416 
	C234.971207,45.999416 242.465530,46.088448 249.956741,45.974045 
	C257.251709,45.862637 264.619965,46.473564 271.807129,44.955143 
	C267.006836,41.975632 29.558283,42.540562 26.018219,45.999413 
	C85.998108,45.999413 144.749054,45.999413 204.500000,45.999416 
M109.500000,37.000584 
	C84.190903,37.000626 58.881756,36.979752 33.572830,37.044865 
	C31.767078,37.049511 29.962948,37.684498 28.158064,38.026394 
	C36.341415,41.268456 269.604706,40.291462 273.006561,37.000587 
	C218.004929,37.000587 164.252457,37.000587 109.500000,37.000584 
M67.760620,178.001328 
	C65.927826,178.093491 64.095032,178.185654 62.262241,178.277817 
	C62.175934,178.873566 62.089630,179.469299 62.003323,180.065033 
	C63.821568,180.709702 65.620613,181.837051 67.461594,181.910294 
	C73.438606,182.148041 79.430969,181.999939 85.417427,181.999954 
	C107.534050,182.000015 129.650681,181.999695 151.767303,182.000107 
	C154.406433,182.000153 157.159836,182.184280 157.675934,178.001358 
	C127.844704,178.001358 98.269684,178.001358 67.760620,178.001328 
M120.474014,16.999157 
	C124.385506,16.999157 128.296997,16.999157 132.208496,16.999157 
	C132.240479,16.479277 132.272446,15.959396 132.304428,15.439515 
	C129.162445,14.627285 126.025284,13.132451 122.877708,13.110171 
	C96.274864,12.921873 69.669907,12.961637 43.066425,13.097731 
	C41.364632,13.106436 39.669861,14.486696 37.971821,15.228911 
	C38.137802,15.818991 38.303780,16.409069 38.469761,16.999147 
	C65.473892,16.999147 92.478027,16.999147 120.474014,16.999157 
M98.500000,169.999390 
	C119.127403,169.999359 139.754929,170.028641 160.381989,169.945892 
	C162.105667,169.938980 163.826324,169.177460 165.548386,168.766525 
	C165.440384,168.272171 165.332367,167.777802 165.224365,167.283447 
	C126.492485,167.283447 87.760605,167.283447 49.028721,167.283447 
	C48.959068,167.697449 48.889420,168.111465 48.819767,168.525467 
	C51.073116,169.016769 53.322670,169.912155 55.580433,169.933365 
	C69.552597,170.064682 83.526604,169.999390 98.500000,169.999390 
M144.398041,184.000610 
	C119.041443,184.000610 93.684853,184.000610 68.328255,184.000610 
	C68.134743,184.681900 67.941231,185.363190 67.747726,186.044479 
	C69.180984,186.695160 70.611671,187.906647 72.047874,187.913208 
	C97.335541,188.028702 122.624115,188.039902 147.911560,187.902405 
	C149.619080,187.893112 151.319183,186.522476 153.022736,185.784973 
	C152.870987,185.190186 152.719254,184.595398 152.567520,184.000610 
	C150.163315,184.000610 147.759125,184.000610 144.398041,184.000610 
M225.500000,16.999065 
	C238.403702,16.999065 251.307388,16.999065 264.211090,16.999065 
	C264.386475,16.446020 264.561890,15.892974 264.737274,15.339929 
	C263.085571,14.560647 261.438080,13.113109 259.781525,13.102683 
	C236.285217,12.954804 212.787170,12.932280 189.291245,13.107811 
	C186.911499,13.125589 184.542801,14.621450 182.168976,15.431384 
	C182.319397,15.953944 182.469803,16.476503 182.620224,16.999063 
	C196.580154,16.999063 210.540070,16.999063 225.500000,16.999065 
M83.500000,173.000610 
	C74.603813,173.000610 65.707619,173.000610 56.811432,173.000610 
	C56.700848,173.511581 56.590267,174.022552 56.479683,174.533524 
	C58.166100,175.021973 59.837818,175.860046 61.541752,175.931671 
	C66.192070,176.127151 70.855980,175.999374 75.514503,175.999374 
	C102.467400,175.999359 129.420349,176.021744 156.373032,175.946701 
	C158.098175,175.941910 159.821198,175.182480 161.545212,174.774094 
	C161.438828,174.182938 161.332428,173.591766 161.226044,173.000610 
	C135.650696,173.000610 110.075348,173.000610 83.500000,173.000610 
M136.398895,193.999969 
	C140.201248,193.512619 144.862656,195.687149 147.391953,190.461151 
	C122.233040,190.461151 97.311600,190.461151 72.390152,190.461151 
	C72.249298,191.033966 72.108437,191.606766 71.967575,192.179581 
	C73.795624,192.786240 75.620255,193.908096 77.452248,193.920258 
	C96.775864,194.048538 116.100647,193.999832 136.398895,193.999969 
M80.120255,199.987183 
	C97.915688,199.991211 115.711967,200.079254 133.505524,199.898758 
	C135.874924,199.874741 138.230530,198.488602 140.592514,197.733246 
	C140.441437,197.307968 140.290359,196.882675 140.139282,196.457397 
	C118.893661,196.457397 97.648041,196.457397 74.786880,196.457397 
	C77.092598,198.246582 78.172859,199.084839 80.120255,199.987183 
M226.500000,10.999520 
	C237.176285,10.999520 247.852570,10.999520 258.528839,10.999520 
	C258.638397,10.415485 258.747925,9.831450 258.857452,9.247416 
	C256.719879,8.498669 254.602081,7.178997 252.441193,7.104181 
	C244.805786,6.839822 237.155579,6.988947 229.511108,7.017520 
	C228.529694,7.021188 226.942856,6.904621 226.665176,7.409506 
	C224.662811,11.050334 221.588181,8.764303 219.119400,8.781219 
	C213.852829,8.817303 208.577713,8.033531 203.315674,8.126774 
	C200.495407,8.176749 197.695007,9.349096 194.885651,10.014956 
	C194.960220,10.343077 195.034775,10.671196 195.109344,10.999316 
	C205.239563,10.999316 215.369781,10.999316 226.500000,10.999520 
M77.499649,10.999414 
	C84.051270,10.999414 90.602890,10.999414 97.154510,10.999414 
	C97.274712,10.499851 97.394913,10.000288 97.515121,9.500726 
	C94.871590,8.667685 92.240784,7.165324 89.582382,7.114824 
	C76.480438,6.865933 63.369804,6.907379 50.265911,7.098597 
	C48.175362,7.129103 46.103508,8.440842 44.023010,9.160256 
	C44.167660,9.773309 44.312313,10.386361 44.456963,10.999413 
	C55.137905,10.999413 65.818848,10.999413 77.499649,10.999414 
M90.627838,202.000610 
	C87.988525,202.000610 85.349220,202.000610 81.346443,202.000610 
	C89.768990,207.569000 123.094315,207.347946 131.111801,202.000610 
	C117.311653,202.000610 104.452301,202.000610 90.627838,202.000610 
z"/>
<path fill="#FAFBF7" opacity="1.000000" stroke="none" 
	d="
M229.138596,123.072662 
	C227.027206,126.281128 225.201965,129.746475 222.664688,132.572601 
	C221.638992,133.715088 219.058243,133.793304 217.184708,133.794800 
	C147.277374,133.850082 77.369995,133.837723 7.462626,133.847748 
	C5.471037,133.848038 3.479470,133.991974 1.243946,134.534454 
	C1.000000,129.977905 1.000000,124.955818 1.000000,119.466866 
	C1.419165,119.051506 1.838330,119.103004 2.750514,119.444580 
	C3.243532,122.972816 3.243532,126.210968 3.243532,129.699722 
	C25.378332,129.699722 46.531250,129.752182 67.682190,129.572937 
	C68.988747,129.561874 70.863327,128.001785 71.481781,126.693535 
	C75.031647,119.184395 78.212265,111.501266 81.711929,103.967186 
	C82.212196,102.890205 83.764084,102.301704 84.829269,101.487137 
	C85.540352,102.577690 86.735229,103.606812 86.882805,104.768936 
	C87.742447,111.538445 88.570000,118.326683 88.967804,125.134338 
	C89.183990,128.834061 90.552208,130.034531 94.176659,129.772110 
	C98.320824,129.472061 102.519943,129.474319 106.664116,129.774384 
	C110.025154,130.017731 111.673767,128.849792 112.961365,125.692947 
	C119.548637,109.542778 126.390587,93.496475 133.145676,77.414764 
	C136.212097,70.114563 139.283554,62.816483 142.630630,54.856571 
	C135.347305,54.856571 128.878220,54.686337 122.433250,55.004707 
	C121.191002,55.066071 119.504166,56.817986 118.941772,58.171913 
	C115.882614,65.536682 112.988853,72.977135 110.297882,80.484627 
	C109.122871,83.762764 107.535919,85.204742 104.148895,83.599457 
	C101.832527,75.012444 99.662430,66.467400 97.113808,58.036793 
	C96.712608,56.709667 94.665588,55.119347 93.261887,54.996632 
	C88.796822,54.606266 84.258980,55.091888 79.782738,54.771397 
	C76.505768,54.536770 75.202515,55.881783 74.092323,58.771404 
	C67.358444,76.298569 60.488415,93.774689 53.451420,111.181969 
	C52.818752,112.747002 50.697147,114.748596 49.232388,114.777252 
	C35.407009,115.047791 21.574057,114.946693 7.743508,114.894424 
	C7.008222,114.891640 6.274916,114.364769 5.540688,114.081871 
	C7.806252,111.093208 10.071815,108.104538 13.123987,105.043091 
	C23.476225,104.975639 33.041866,104.990303 42.607475,104.978981 
	C44.699387,104.976509 47.232578,105.503708 46.857227,101.972374 
	C46.901901,101.554085 46.946575,101.135796 47.350967,100.261810 
	C48.117065,98.519249 48.523445,97.232391 48.929817,95.945526 
	C49.249218,95.497864 49.568623,95.050209 50.074089,94.046738 
	C50.764198,92.326180 51.268234,91.161430 51.772270,89.996681 
	C51.845066,89.575684 51.917862,89.154686 52.338139,88.276199 
	C53.080921,86.534569 53.476231,85.250427 53.871536,83.966286 
	C54.208366,83.514221 54.545193,83.062149 55.074814,82.029938 
	C55.627247,80.362518 55.986893,79.275238 56.346535,78.187965 
	C56.560211,77.677086 56.773891,77.166206 57.284889,76.196404 
	C57.997746,74.485870 58.413277,73.234253 58.828812,71.982643 
	C58.882854,71.563072 58.936893,71.143509 59.341587,70.275597 
	C60.075470,68.544067 60.458698,67.260887 60.841927,65.977699 
	C61.186390,65.526573 61.530857,65.075447 62.156929,64.091911 
	C62.757092,62.439819 63.075642,61.320137 63.394188,60.200451 
	C63.592239,59.685146 63.790291,59.169838 64.296997,58.206161 
	C65.013145,56.499649 65.420654,55.241508 65.828163,53.983368 
	C65.882446,53.563515 65.936729,53.143665 66.340652,52.298470 
	C67.255783,50.655880 67.821266,49.438637 68.386749,48.221394 
	C69.712837,48.143875 71.038910,47.998768 72.365005,47.998543 
	C137.806473,47.987484 203.247925,47.988861 268.689392,47.988873 
	C269.681244,47.988873 270.673096,47.988873 272.582520,47.988873 
	C262.056213,66.992111 251.827576,85.458015 241.094574,103.763977 
	C241.151749,97.277214 238.052826,93.279488 231.294540,90.941719 
	C233.331894,89.625717 234.629364,89.003731 235.659714,88.082863 
	C239.207809,84.911789 243.186020,82.034615 246.025360,78.303497 
	C249.898575,73.213806 250.325134,67.111557 247.404434,61.322426 
	C244.544159,55.653099 239.183868,54.747425 233.365128,54.812138 
	C221.385071,54.945370 209.399597,54.997753 197.422821,54.759087 
	C194.050446,54.691879 192.389679,55.718887 191.165482,58.822380 
	C187.329163,68.547882 183.191879,78.154335 179.204681,87.820717 
	C173.527222,101.584877 167.879486,115.361305 161.985153,129.701523 
	C176.858765,129.701523 191.121765,129.343002 205.354446,129.844742 
	C213.086121,130.117325 219.711411,128.150391 225.964020,123.958534 
	C226.830658,123.377525 228.071167,123.354172 229.138596,123.072662 
M153.429886,117.944717 
	C162.069611,97.128769 170.709335,76.312820 179.617142,54.850998 
	C173.155319,54.850998 167.514084,55.061272 161.898605,54.771969 
	C158.541489,54.599022 157.027710,55.683548 155.784470,58.890350 
	C149.182190,75.920189 142.263107,92.827118 135.468216,109.782410 
	C132.900177,116.190430 130.370880,122.613968 127.556892,129.703125 
	C131.134888,129.703125 133.915558,129.703125 136.696228,129.703125 
	C148.615723,129.703125 148.615723,129.703125 153.429886,117.944717 
z"/>
<path fill="#356D00" opacity="1.000000" stroke="none" 
	d="
M1.000000,137.399994 
	C73.447884,137.000000 145.895767,137.000000 218.343643,137.000000 
	C218.569809,137.438339 218.795990,137.876663 219.022156,138.315002 
	C217.628922,139.205093 216.329559,140.356674 214.812302,140.901306 
	C213.630219,141.325653 212.177032,140.998795 210.844315,140.998810 
	C141.208649,140.999481 71.572983,140.999435 1.468657,140.999725 
	C1.000000,139.933334 1.000000,138.866653 1.000000,137.399994 
z"/>
<path fill="#346D00" opacity="1.000000" stroke="none" 
	d="
M1.000000,143.399994 
	C71.962837,143.000000 142.925674,143.000000 213.888519,143.000000 
	C214.148941,143.360260 214.409363,143.720520 214.669800,144.080780 
	C213.398972,145.048889 212.247864,146.311798 210.819473,146.891968 
	C209.673782,147.357315 208.191711,146.998520 206.858917,146.998535 
	C138.551712,146.999237 70.244514,146.999176 1.468657,146.999603 
	C1.000000,145.933334 1.000000,144.866653 1.000000,143.399994 
z"/>
<path fill="#356D00" opacity="1.000000" stroke="none" 
	d="
M1.000000,149.399994 
	C70.648499,149.000000 140.296997,149.000000 209.945496,149.000000 
	C210.167007,149.486664 210.388519,149.973312 210.610031,150.459976 
	C208.777130,151.306091 206.969391,152.811096 205.106873,152.882309 
	C197.718414,153.164658 190.312820,152.999023 182.913574,152.999054 
	C122.588158,152.999222 62.262733,152.999298 1.468657,152.999710 
	C1.000000,151.933334 1.000000,150.866653 1.000000,149.399994 
z"/>
<path fill="#366C00" opacity="1.000000" stroke="none" 
	d="
M1.000000,155.399994 
	C60.659622,155.000000 120.319244,155.000000 179.978867,155.000000 
	C180.077438,155.396133 180.176025,155.792282 180.274597,156.188416 
	C177.414093,157.124588 174.555389,158.870865 171.692780,158.877258 
	C115.106506,159.003860 58.519783,158.928802 1.466573,158.947372 
	C1.000000,157.933334 1.000000,156.866653 1.000000,155.399994 
z"/>
<path fill="#366C00" opacity="1.000000" stroke="none" 
	d="
M1.000000,161.333328 
	C57.064114,161.000000 113.128227,161.000000 169.255661,161.000000 
	C169.012665,165.509384 166.048660,164.996170 163.415619,164.996429 
	C131.439316,164.999557 99.463013,164.998459 67.486710,164.998459 
	C63.822758,164.998459 60.154690,165.111908 56.495544,164.979309 
	C38.306793,164.320145 20.120394,163.596161 1.466583,162.947510 
	C1.000000,162.555557 1.000000,162.111099 1.000000,161.333328 
z"/>
<path fill="#346D00" opacity="1.000000" stroke="none" 
	d="
M79.531380,0.999999 
	C81.304382,2.194768 82.608765,3.389538 84.100334,4.755760 
	C73.961006,4.755760 63.939804,4.755760 53.207516,4.755760 
	C54.775177,3.518584 55.916035,2.618233 57.028446,1.358941 
	C64.354256,1.000000 71.708504,1.000000 79.531380,0.999999 
z"/>
<path fill="#346D00" opacity="1.000000" stroke="none" 
	d="
M246.533875,1.000001 
	C247.729630,2.129922 248.459259,3.259843 249.386337,4.695537 
	C242.754364,4.695537 236.317459,4.695537 229.274445,4.695537 
	C230.427780,3.461144 231.250565,2.580532 232.036682,1.349960 
	C236.689255,1.000000 241.378510,1.000000 246.533875,1.000001 
z"/>
<path fill="#9D7D0A" opacity="1.000000" stroke="none" 
	d="
M5.179723,114.031708 
	C6.274916,114.364769 7.008222,114.891640 7.743508,114.894424 
	C21.574057,114.946693 35.407009,115.047791 49.232388,114.777252 
	C50.697147,114.748596 52.818752,112.747002 53.451420,111.181969 
	C60.488415,93.774689 67.358444,76.298569 74.092323,58.771404 
	C75.202515,55.881783 76.505768,54.536770 79.782738,54.771397 
	C84.258980,55.091888 88.796822,54.606266 93.261887,54.996632 
	C94.665588,55.119347 96.712608,56.709667 97.113808,58.036793 
	C99.662430,66.467400 101.832527,75.012444 104.148895,83.599457 
	C107.535919,85.204742 109.122871,83.762764 110.297882,80.484627 
	C112.988853,72.977135 115.882614,65.536682 118.941772,58.171913 
	C119.504166,56.817986 121.191002,55.066071 122.433250,55.004707 
	C128.878220,54.686337 135.347305,54.856571 142.630630,54.856571 
	C139.283554,62.816483 136.212097,70.114563 133.145676,77.414764 
	C126.390587,93.496475 119.548637,109.542778 112.961365,125.692947 
	C111.673767,128.849792 110.025154,130.017731 106.664116,129.774384 
	C102.519943,129.474319 98.320824,129.472061 94.176659,129.772110 
	C90.552208,130.034531 89.183990,128.834061 88.967804,125.134338 
	C88.570000,118.326683 87.742447,111.538445 86.882805,104.768936 
	C86.735229,103.606812 85.540352,102.577690 84.829269,101.487137 
	C83.764084,102.301704 82.212196,102.890205 81.711929,103.967186 
	C78.212265,111.501266 75.031647,119.184395 71.481781,126.693535 
	C70.863327,128.001785 68.988747,129.561874 67.682190,129.572937 
	C46.531250,129.752182 25.378332,129.699722 3.243532,129.699722 
	C3.243532,126.210968 3.243532,122.972816 3.121004,119.285515 
	C3.605236,117.218102 4.211997,115.599823 5.179723,114.031708 
z"/>
<path fill="#9D7D09" opacity="1.000000" stroke="none" 
	d="
M229.108826,123.041702 
	C228.071167,123.354172 226.830658,123.377525 225.964020,123.958534 
	C219.711411,128.150391 213.086121,130.117325 205.354446,129.844742 
	C191.121765,129.343002 176.858765,129.701523 161.985153,129.701523 
	C167.879486,115.361305 173.527222,101.584877 179.204681,87.820717 
	C183.191879,78.154335 187.329163,68.547882 191.165482,58.822380 
	C192.389679,55.718887 194.050446,54.691879 197.422821,54.759087 
	C209.399597,54.997753 221.385071,54.945370 233.365128,54.812138 
	C239.183868,54.747425 244.544159,55.653099 247.404434,61.322426 
	C250.325134,67.111557 249.898575,73.213806 246.025360,78.303497 
	C243.186020,82.034615 239.207809,84.911789 235.659714,88.082863 
	C234.629364,89.003731 233.331894,89.625717 231.294540,90.941719 
	C238.052826,93.279488 241.151749,97.277214 240.776688,103.959274 
	C239.477615,110.687691 236.265274,116.012192 230.728333,120.611588 
	C230.058105,121.075706 229.835587,121.193184 229.840851,121.299370 
	C229.853958,121.563957 229.970734,121.823418 230.045898,122.084930 
	C230.045898,122.084930 230.020828,122.014534 229.644684,121.875923 
	C229.193771,122.187943 229.119003,122.638580 229.044250,123.089211 
	C229.044250,123.089211 229.079041,123.010742 229.108826,123.041702 
M190.789520,112.292305 
	C191.089920,112.834381 191.383209,113.844246 191.691742,113.848930 
	C197.003433,113.929558 202.360870,114.302612 207.617386,113.748802 
	C212.522583,113.232002 216.162140,110.175125 217.998383,105.473816 
	C219.639084,101.273094 217.587433,98.350876 213.037643,98.063271 
	C197.950165,97.109558 197.950348,97.109642 191.510681,110.690529 
	C191.368561,110.990265 191.208679,111.281578 190.789520,112.292305 
M212.050049,69.432182 
	C210.742279,69.890709 208.704956,69.978607 208.251541,70.871162 
	C206.157013,74.994179 204.503189,79.341064 202.450592,84.174835 
	C207.769852,84.174835 212.061172,84.260239 216.347595,84.152100 
	C221.147598,84.030998 225.629822,80.352600 226.688187,75.692078 
	C227.495468,72.137100 226.196594,69.760040 222.356918,69.509850 
	C219.226410,69.305870 216.073532,69.445000 212.050049,69.432182 
z"/>
<path fill="#9C7B06" opacity="1.000000" stroke="none" 
	d="
M342.999603,68.007034 
	C343.183777,67.501411 343.316467,67.371887 343.355804,67.218430 
	C346.343903,55.555717 353.941437,52.489586 365.404846,53.770500 
	C375.365784,54.883530 385.549591,54.002140 395.673920,54.002140 
	C395.673920,54.900879 395.771912,55.256599 395.659851,55.524483 
	C389.605743,69.999504 389.591919,70.355476 373.823395,69.824242 
	C367.462585,69.609947 364.337433,71.440323 361.665924,77.361023 
	C354.222992,93.856194 345.967957,109.987938 337.846130,126.169083 
	C337.039948,127.775238 334.968567,129.799088 333.448090,129.829742 
	C319.479431,130.111343 305.502808,129.995590 290.078278,129.995590 
	C293.060913,124.030060 295.566284,118.818123 298.330048,113.746994 
	C298.673401,113.116989 300.385834,113.049858 301.467743,113.036530 
	C306.962952,112.968811 312.465332,112.854301 317.953033,113.068443 
	C320.670288,113.174469 321.981201,112.257645 323.141205,109.771225 
	C329.605927,95.914055 336.293304,82.160774 342.999603,68.007034 
z"/>
<path fill="#9C7B06" opacity="1.000000" stroke="none" 
	d="
M303.080292,54.002140 
	C315.381683,54.002140 327.194305,54.002140 339.988922,54.002140 
	C337.588135,59.123589 335.542572,63.828396 333.135345,68.340256 
	C332.642578,69.263824 330.807892,69.885094 329.568573,69.924995 
	C324.248077,70.096283 318.912537,70.154915 313.595398,69.938065 
	C310.580475,69.815102 309.001831,70.711586 307.617004,73.604805 
	C299.307922,90.963928 290.584198,108.125069 282.328033,125.508629 
	C280.606506,129.133347 278.571167,130.151016 274.774292,130.086258 
	C261.661346,129.862656 248.542236,130.000153 234.810867,130.000153 
	C237.083527,124.500946 238.988235,119.487915 241.292664,114.665909 
	C241.739685,113.730545 243.730545,113.127014 245.035110,113.079453 
	C250.021637,112.897614 255.030258,112.797554 260.007965,113.074478 
	C263.604156,113.274544 265.557495,112.220047 267.194305,108.738541 
	C274.611359,92.962196 282.660004,77.480370 289.949036,61.647491 
	C292.653198,55.773689 295.920410,52.509975 303.080292,54.002140 
z"/>
<path fill="#366C00" opacity="1.000000" stroke="none" 
	d="
M152.000000,30.999699 
	C190.323135,30.999710 228.146286,30.995266 265.969421,31.009724 
	C268.498413,31.010689 271.584839,30.268681 271.587830,34.998272 
	C269.885864,34.998272 268.259003,34.998272 266.632111,34.998272 
	C189.652847,34.998264 112.673592,34.998257 35.694336,34.998180 
	C35.027851,34.998177 34.262398,35.209217 33.714855,34.953732 
	C32.456799,34.366718 31.304857,33.552269 30.109844,32.830135 
	C31.250484,32.220963 32.375244,31.123091 33.534458,31.085424 
	C39.193653,30.901546 44.862045,30.999876 50.527184,30.999830 
	C84.184792,30.999565 117.842392,30.999699 152.000000,30.999699 
z"/>
<path fill="#366C00" opacity="1.000000" stroke="none" 
	d="
M144.000000,28.998285 
	C108.366882,28.998281 73.233765,28.998671 38.100643,28.996784 
	C36.768764,28.996714 35.393078,29.171486 34.121540,28.888517 
	C33.366169,28.720417 32.774826,27.815268 32.109734,27.241501 
	C32.779163,26.505850 33.322338,25.424259 34.150009,25.122204 
	C35.182156,24.745527 36.448772,25.001179 37.614147,25.001154 
	C113.208626,24.999552 188.803101,24.999643 264.397583,25.000414 
	C265.396576,25.000423 266.467590,24.787136 267.374451,25.079000 
	C268.297180,25.375977 269.058197,26.175327 269.890045,26.754692 
	C269.054169,27.497078 268.327301,28.592043 267.354858,28.892651 
	C266.137512,29.268967 264.718445,28.997564 263.386444,28.997593 
	C223.757629,28.998447 184.128815,28.998287 144.000000,28.998285 
z"/>
<path fill="#356D00" opacity="1.000000" stroke="none" 
	d="
M40.358631,19.000248 
	C70.640572,19.000153 100.465767,18.919218 130.289536,19.088835 
	C134.679474,19.113804 139.083893,20.211750 143.444595,21.014345 
	C152.750702,22.727158 161.810486,21.251904 170.853714,19.198862 
	C171.812653,18.981155 172.838806,19.008337 173.833801,19.008028 
	C203.491928,18.998829 233.150177,18.966152 262.807800,19.086882 
	C264.564453,19.094030 266.316040,20.347744 268.069977,21.021379 
	C267.893707,21.569118 267.717438,22.116858 267.541168,22.664597 
	C189.870636,22.664597 112.200104,22.664597 34.529564,22.664597 
	C34.354744,22.155127 34.179924,21.645658 34.005104,21.136189 
	C35.970543,20.424238 37.935982,19.712290 40.358631,19.000248 
z"/>
<path fill="#356D00" opacity="1.000000" stroke="none" 
	d="
M204.000000,45.999413 
	C144.749054,45.999413 85.998108,45.999413 26.018219,45.999413 
	C29.558283,42.540562 267.006836,41.975632 271.807129,44.955143 
	C264.619965,46.473564 257.251709,45.862637 249.956741,45.974045 
	C242.465530,46.088448 234.971207,45.999416 227.478256,45.999416 
	C219.818832,45.999416 212.159424,45.999416 204.000000,45.999413 
z"/>
<path fill="#356D00" opacity="1.000000" stroke="none" 
	d="
M110.000000,37.000587 
	C164.252457,37.000587 218.004929,37.000587 273.006561,37.000587 
	C269.604706,40.291462 36.341415,41.268456 28.158064,38.026394 
	C29.962948,37.684498 31.767078,37.049511 33.572830,37.044865 
	C58.881756,36.979752 84.190903,37.000626 110.000000,37.000587 
z"/>
<path fill="#356C00" opacity="1.000000" stroke="none" 
	d="
M68.227646,178.001343 
	C98.269684,178.001358 127.844704,178.001358 157.675934,178.001358 
	C157.159836,182.184280 154.406433,182.000153 151.767303,182.000107 
	C129.650681,181.999695 107.534050,182.000015 85.417427,181.999954 
	C79.430969,181.999939 73.438606,182.148041 67.461594,181.910294 
	C65.620613,181.837051 63.821568,180.709702 62.003323,180.065033 
	C62.089630,179.469299 62.175934,178.873566 62.262241,178.277817 
	C64.095032,178.185654 65.927826,178.093491 68.227646,178.001343 
z"/>
<path fill="#346D00" opacity="1.000000" stroke="none" 
	d="
M119.978088,16.999153 
	C92.478027,16.999147 65.473892,16.999147 38.469761,16.999147 
	C38.303780,16.409069 38.137802,15.818991 37.971821,15.228911 
	C39.669861,14.486696 41.364632,13.106436 43.066425,13.097731 
	C69.669907,12.961637 96.274864,12.921873 122.877708,13.110171 
	C126.025284,13.132451 129.162445,14.627285 132.304428,15.439515 
	C132.272446,15.959396 132.240479,16.479277 132.208496,16.999157 
	C128.296997,16.999157 124.385506,16.999157 119.978088,16.999153 
z"/>
<path fill="#356D00" opacity="1.000000" stroke="none" 
	d="
M98.000000,169.999390 
	C83.526604,169.999390 69.552597,170.064682 55.580433,169.933365 
	C53.322670,169.912155 51.073116,169.016769 48.819767,168.525467 
	C48.889420,168.111465 48.959068,167.697449 49.028721,167.283447 
	C87.760605,167.283447 126.492485,167.283447 165.224365,167.283447 
	C165.332367,167.777802 165.440384,168.272171 165.548386,168.766525 
	C163.826324,169.177460 162.105667,169.938980 160.381989,169.945892 
	C139.754929,170.028641 119.127403,169.999359 98.000000,169.999390 
z"/>
<path fill="#356D00" opacity="1.000000" stroke="none" 
	d="
M144.876480,184.000610 
	C147.759125,184.000610 150.163315,184.000610 152.567520,184.000610 
	C152.719254,184.595398 152.870987,185.190186 153.022736,185.784973 
	C151.319183,186.522476 149.619080,187.893112 147.911560,187.902405 
	C122.624115,188.039902 97.335541,188.028702 72.047874,187.913208 
	C70.611671,187.906647 69.180984,186.695160 67.747726,186.044479 
	C67.941231,185.363190 68.134743,184.681900 68.328255,184.000610 
	C93.684853,184.000610 119.041443,184.000610 144.876480,184.000610 
z"/>
<path fill="#346D00" opacity="1.000000" stroke="none" 
	d="
M225.000000,16.999065 
	C210.540070,16.999063 196.580154,16.999063 182.620224,16.999063 
	C182.469803,16.476503 182.319397,15.953944 182.168976,15.431384 
	C184.542801,14.621450 186.911499,13.125589 189.291245,13.107811 
	C212.787170,12.932280 236.285217,12.954804 259.781525,13.102683 
	C261.438080,13.113109 263.085571,14.560647 264.737274,15.339929 
	C264.561890,15.892974 264.386475,16.446020 264.211090,16.999065 
	C251.307388,16.999065 238.403702,16.999065 225.000000,16.999065 
z"/>
<path fill="#356D00" opacity="1.000000" stroke="none" 
	d="
M84.000000,173.000610 
	C110.075348,173.000610 135.650696,173.000610 161.226044,173.000610 
	C161.332428,173.591766 161.438828,174.182938 161.545212,174.774094 
	C159.821198,175.182480 158.098175,175.941910 156.373032,175.946701 
	C129.420349,176.021744 102.467400,175.999359 75.514503,175.999374 
	C70.855980,175.999374 66.192070,176.127151 61.541752,175.931671 
	C59.837818,175.860046 58.166100,175.021973 56.479683,174.533524 
	C56.590267,174.022552 56.700848,173.511581 56.811432,173.000610 
	C65.707619,173.000610 74.603813,173.000610 84.000000,173.000610 
z"/>
<path fill="#346D00" opacity="1.000000" stroke="none" 
	d="
M135.912003,193.999969 
	C116.100647,193.999832 96.775864,194.048538 77.452248,193.920258 
	C75.620255,193.908096 73.795624,192.786240 71.967575,192.179581 
	C72.108437,191.606766 72.249298,191.033966 72.390152,190.461151 
	C97.311600,190.461151 122.233040,190.461151 147.391953,190.461151 
	C144.862656,195.687149 140.201248,193.512619 135.912003,193.999969 
z"/>
<path fill="#346D00" opacity="1.000000" stroke="none" 
	d="
M79.686691,199.955139 
	C78.172859,199.084839 77.092598,198.246582 74.786880,196.457397 
	C97.648041,196.457397 118.893661,196.457397 140.139282,196.457397 
	C140.290359,196.882675 140.441437,197.307968 140.592514,197.733246 
	C138.230530,198.488602 135.874924,199.874741 133.505524,199.898758 
	C115.711967,200.079254 97.915688,199.991211 79.686691,199.955139 
z"/>
<path fill="#346D00" opacity="1.000000" stroke="none" 
	d="
M226.000000,10.999418 
	C215.369781,10.999316 205.239563,10.999316 195.109344,10.999316 
	C195.034775,10.671196 194.960220,10.343077 194.885651,10.014956 
	C197.695007,9.349096 200.495407,8.176749 203.315674,8.126774 
	C208.577713,8.033531 213.852829,8.817303 219.119400,8.781219 
	C221.588181,8.764303 224.662811,11.050334 226.665176,7.409506 
	C226.942856,6.904621 228.529694,7.021188 229.511108,7.017520 
	C237.155579,6.988947 244.805786,6.839822 252.441193,7.104181 
	C254.602081,7.178997 256.719879,8.498669 258.857452,9.247416 
	C258.747925,9.831450 258.638397,10.415485 258.528839,10.999520 
	C247.852570,10.999520 237.176285,10.999520 226.000000,10.999418 
z"/>
<path fill="#356D00" opacity="1.000000" stroke="none" 
	d="
M76.999725,10.999414 
	C65.818848,10.999413 55.137905,10.999413 44.456963,10.999413 
	C44.312313,10.386361 44.167660,9.773309 44.023010,9.160256 
	C46.103508,8.440842 48.175362,7.129103 50.265911,7.098597 
	C63.369804,6.907379 76.480438,6.865933 89.582382,7.114824 
	C92.240784,7.165324 94.871590,8.667685 97.515121,9.500726 
	C97.394913,10.000288 97.274712,10.499851 97.154510,10.999414 
	C90.602890,10.999414 84.051270,10.999414 76.999725,10.999414 
z"/>
<path fill="#356D00" opacity="1.000000" stroke="none" 
	d="
M91.110390,202.000610 
	C104.452301,202.000610 117.311653,202.000610 131.111801,202.000610 
	C123.094315,207.347946 89.768990,207.569000 81.346443,202.000610 
	C85.349220,202.000610 87.988525,202.000610 91.110390,202.000610 
z"/>
<path fill="#366D01" opacity="1.000000" stroke="none" 
	d="
M67.896988,48.150116 
	C67.821266,49.438637 67.255783,50.655880 66.360275,51.979740 
	C54.405842,52.056602 42.780216,52.098263 31.158630,51.901279 
	C29.798048,51.878216 28.459768,50.539383 27.111149,49.810532 
	C28.420227,49.208462 29.724670,48.095844 31.039110,48.083900 
	C43.160824,47.973801 55.284271,48.054001 67.896988,48.150116 
z"/>
<path fill="#356D01" opacity="1.000000" stroke="none" 
	d="
M65.370560,53.989189 
	C65.420654,55.241508 65.013145,56.499649 64.299599,57.912613 
	C53.039936,58.044083 42.084953,58.096672 31.134436,57.900299 
	C29.781038,57.876030 28.451420,56.525826 27.110783,55.790047 
	C28.425415,55.194263 29.733843,54.097740 31.055656,54.081352 
	C42.340046,53.941471 53.626869,53.997570 65.370560,53.989189 
z"/>
<path fill="#356E01" opacity="1.000000" stroke="none" 
	d="
M62.902412,60.136356 
	C63.075642,61.320137 62.757092,62.439819 62.181320,63.802845 
	C51.646969,64.029846 41.368279,64.094719 31.094589,63.898247 
	C29.753660,63.872601 28.438421,62.503571 27.111282,61.756775 
	C28.435053,61.172340 29.753286,60.096386 31.083471,60.081409 
	C41.524570,59.963787 51.967957,60.049335 62.902412,60.136356 
z"/>
<path fill="#356D01" opacity="1.000000" stroke="none" 
	d="
M60.383438,65.985703 
	C60.458698,67.260887 60.075470,68.544067 59.360737,69.957077 
	C49.734936,70.057037 40.438591,70.115501 31.148598,69.900085 
	C29.787363,69.868523 28.456341,68.534004 27.111341,67.802353 
	C28.422096,67.202507 29.725000,66.103401 31.044861,66.082642 
	C40.669647,65.931305 50.297836,65.996742 60.383438,65.985703 
z"/>
<path fill="#376D01" opacity="1.000000" stroke="none" 
	d="
M48.466164,95.966400 
	C48.523445,97.232391 48.117065,98.519249 47.371094,99.945724 
	C36.881676,100.085350 26.731857,100.085350 16.582035,100.085350 
	C16.476553,99.302071 16.371069,98.518784 16.265585,97.735504 
	C18.048418,97.157974 19.821878,96.117599 21.615669,96.081291 
	C30.408312,95.903290 39.206364,95.992493 48.466164,95.966400 
z"/>
<path fill="#356D01" opacity="1.000000" stroke="none" 
	d="
M58.371185,71.989075 
	C58.413277,73.234253 57.997746,74.485870 57.283325,75.899109 
	C48.363918,76.039261 39.741016,76.112930 31.125330,75.897850 
	C29.770716,75.864029 28.448772,74.521523 27.111725,73.784134 
	C28.426466,73.190643 29.732716,72.105881 31.057322,72.082970 
	C40.007229,71.928230 48.961025,71.998230 58.371185,71.989075 
z"/>
<path fill="#366D01" opacity="1.000000" stroke="none" 
	d="
M51.318611,89.987747 
	C51.268234,91.161430 50.764198,92.326180 50.072178,93.762634 
	C40.134071,94.034348 30.383944,94.034348 20.476492,94.034348 
	C19.835129,90.071526 22.117796,89.998749 24.512144,89.999283 
	C33.296413,90.001244 42.080681,89.986977 51.318611,89.987747 
z"/>
<path fill="#366D01" opacity="1.000000" stroke="none" 
	d="
M53.411205,83.978867 
	C53.476231,85.250427 53.080921,86.534569 52.357704,87.953018 
	C42.421204,88.087318 32.812618,88.087318 23.234041,88.087318 
	C22.214102,84.661095 23.753546,83.941757 26.583614,83.969986 
	C35.371899,84.057655 44.161674,83.995476 53.411205,83.978867 
z"/>
<path fill="#356D00" opacity="1.000000" stroke="none" 
	d="
M55.858234,78.126373 
	C55.986893,79.275238 55.627247,80.362518 55.075157,81.740990 
	C45.101364,82.032188 35.320011,82.032188 25.538662,82.032188 
	C25.330753,81.426674 25.122845,80.821159 24.914934,80.215637 
	C26.589439,79.477478 28.249914,78.141678 29.940817,78.101967 
	C38.412811,77.903084 46.892769,78.043571 55.858234,78.126373 
z"/>
<path fill="#356D00" opacity="1.000000" stroke="none" 
	d="
M46.397766,101.982292 
	C47.232578,105.503708 44.699387,104.976509 42.607475,104.978981 
	C33.041866,104.990303 23.476225,104.975639 13.446747,104.899178 
	C14.581929,103.885986 16.159348,102.174423 17.783558,102.128799 
	C27.162355,101.865372 36.552204,101.995422 46.397766,101.982292 
z"/>
<path fill="#FAFBF7" opacity="1.000000" stroke="none" 
	d="
M229.308197,123.018036 
	C229.119003,122.638580 229.193771,122.187943 229.681488,121.882210 
	C229.920364,122.333694 229.746262,122.640282 229.308197,123.018036 
z"/>
<path fill="#FAFBF7" opacity="1.000000" stroke="none" 
	d="
M230.335205,121.993790 
	C229.970734,121.823418 229.853958,121.563957 229.840851,121.299370 
	C229.835587,121.193184 230.058105,121.075706 230.532074,120.875839 
	C230.799622,121.159760 230.712067,121.531204 230.335205,121.993790 
z"/>
<path fill="#9D7D0A" opacity="1.000000" stroke="none" 
	d="
M153.281204,118.300201 
	C148.615723,129.703125 148.615723,129.703125 136.696228,129.703125 
	C133.915558,129.703125 131.134888,129.703125 127.556892,129.703125 
	C130.370880,122.613968 132.900177,116.190430 135.468216,109.782410 
	C142.263107,92.827118 149.182190,75.920189 155.784470,58.890350 
	C157.027710,55.683548 158.541489,54.599022 161.898605,54.771969 
	C167.514084,55.061272 173.155319,54.850998 179.617142,54.850998 
	C170.709335,76.312820 162.069611,97.128769 153.281204,118.300201 
z"/>
<path fill="#FCFBF8" opacity="1.000000" stroke="none" 
	d="
M190.923309,111.934563 
	C191.208679,111.281578 191.368561,110.990265 191.510681,110.690529 
	C197.950348,97.109642 197.950165,97.109558 213.037643,98.063271 
	C217.587433,98.350876 219.639084,101.273094 217.998383,105.473816 
	C216.162140,110.175125 212.522583,113.232002 207.617386,113.748802 
	C202.360870,114.302612 197.003433,113.929558 191.691742,113.848930 
	C191.383209,113.844246 191.089920,112.834381 190.923309,111.934563 
z"/>
<path fill="#FBFAF5" opacity="1.000000" stroke="none" 
	d="
M212.490311,69.432083 
	C216.073532,69.445000 219.226410,69.305870 222.356918,69.509850 
	C226.196594,69.760040 227.495468,72.137100 226.688187,75.692078 
	C225.629822,80.352600 221.147598,84.030998 216.347595,84.152100 
	C212.061172,84.260239 207.769852,84.174835 202.450592,84.174835 
	C204.503189,79.341064 206.157013,74.994179 208.251541,70.871162 
	C208.704956,69.978607 210.742279,69.890709 212.490311,69.432083 
z"/>
</svg>